EMG
version=1
nRows=34
nColumns=17
inDegrees=no
endheader
time	EMG01_right_gast_med	EMG02_right_glut_max	EMG03_left_gast_med	EMG04_left_glut_max	EMG05_right_glut_med	EMG06_right_bic_fem	EMG07_right_rect_fem	EMG08_right_vast_lat	EMG09_right_vast_med	EMG10_right_tens_fasc_lat	EMG11_left_glut_med	EMG12_left_bic_fem	EMG13_left_rect_fem	EMG14_left_vast_lat	EMG15_left_vast_med	EMG16_left_tens_fasc_lat
      1.60000000	     -9.41464806	      5.54576921	      2.73377609	   -212.99142456	      5.84106445	    -10.75326633	      4.34291267	    -12.91502666	     31.20673370	     14.83640385	     -9.97892570	     -4.40875483	     -7.43181276	      9.25930977	    -13.99650192	    323.58267212
      1.61000000	      3.29218102	    -25.25720024	      7.49156904	   -371.76803589	     51.17995834	    -12.78007889	      0.10316753	    -13.63414288	      0.37555790	     20.17831802	    -37.56861115	      7.96146679	     -5.05037689	     18.10324097	    -10.02301598	    327.65853882
      1.62000000	      3.19470596	    -45.66047668	     -4.31191015	   -391.98437500	    -16.61168098	    -13.99884605	     -0.01339352	     -8.21027279	    -17.35659981	    -11.08591652	      0.16680944	    -31.38136673	    -15.73723602	     12.09299660	     -9.44801807	    154.30052185
      1.63000000	    -83.68264008	    -67.36210632	     -8.83698654	   -183.10733032	    -69.83251953	    -10.22575665	     -7.66298771	     16.07836914	    -20.95881462	    -34.99533844	      4.16533184	     55.04680252	    -12.15117168	    -11.09763145	     -6.26142693	    122.78517914
      1.64000000	    142.38018799	    -68.76990509	     -1.86819553	    -73.90074921	      4.79903221	    -15.27289104	     -2.79069829	     25.48965645	    -20.33775330	    -58.53890991	     -4.34590435	     28.88460350	    -16.18083000	    -12.66624451	      7.62905073	     25.17509842
      1.65000000	     57.39141083	    -57.63024902	     -8.64816952	     -8.08165550	    -42.19654083	    -16.98225784	     -2.00172353	     21.55109024	    -20.87199593	    -83.87708282	     -4.50715637	      9.16454124	    -10.66244316	     10.07074451	     11.54368687	    -89.05111694
      1.66000000	    271.36596680	    -35.37513351	     -7.06570625	     24.10085678	    -33.44564056	     11.36963654	     -1.52131188	      8.66623497	     -8.67671013	    -58.50109100	      1.78045273	     17.64015579	    -29.94737625	    -11.82036591	     14.23735809	    -20.20672417
      1.67000000	     97.30490112	    -11.64704418	     -5.27724314	     62.27398682	     21.46332550	      8.49527454	      3.64470482	     -1.25960636	      6.10411692	    -32.15567780	     13.27695084	     -6.00667858	     -8.11030388	      8.70195389	      9.17901993	   -120.44342804
      1.68000000	   -117.60321045	      4.95860147	     -5.70457649	     93.97383881	      6.39364862	      0.52728200	     -1.66823077	    -11.67148399	     16.47370148	    -18.16216278	     -6.62159348	    -15.29819870	     -3.97420406	    -38.11945724	     20.22101974	    -78.74301910
      1.69000000	   -174.81385803	      3.31364703	     -1.56223941	    117.90964508	     55.89881897	      0.78663540	     -4.95412683	    -18.00517464	     31.92950058	      7.89075136	    -10.19600487	     21.31244659	    -15.18109989	      2.54522943	     15.52856445	    -26.43671227
      1.70000000	    422.96545410	     13.68177605	    -10.66931820	    179.58001709	     46.57228088	     -9.85211468	     -6.26302481	    -18.15386581	     33.93859863	     24.33955574	    -15.04032707	      6.80333519	    -13.87969112	    -24.62135696	     19.80963135	     43.13212967
      1.71000000	    147.38330078	     23.17995644	    -11.99120522	    196.88067627	     40.04033661	      3.13515854	      9.09682655	    -19.90429878	     38.93463516	     19.28571701	     15.09438133	      3.38775826	      1.24994540	    -18.20242310	     18.56337929	    168.54583740
      1.72000000	      9.15014648	     43.01541519	     -6.23302650	     83.36082458	    104.22885895	     -2.40088367	     -8.42463684	    -11.15855217	     28.23530388	     48.62625122	    -13.07763577	    -51.84890747	      1.98927832	    -26.10917282	     56.20423508	     26.06111145
      1.73000000	    -84.59707642	     53.20853424	     -5.76015663	    -20.45692635	     93.36569214	     -2.16766953	     -4.65566874	    -20.71497536	      8.06047249	     32.81484222	     14.52004814	     47.33712769	    -32.86658096	    -37.79520416	     23.10674095	   -147.90695190
      1.74000000	    -66.17025757	     48.54112244	      5.37447643	    -28.39965820	     50.84725952	     -2.58145618	     -2.28406453	    -10.09760475	    -30.31297302	    -35.20934677	      5.86786842	    -54.90725327	    -25.09781837	     -0.54549742	     32.54479599	   -237.16763306
      1.75000000	     -8.90622711	     23.62587357	      6.97161150	    -69.53210449	     13.42111874	     -8.05761147	     10.09049129	    -19.93389320	    -55.38940430	    -58.23521042	     -8.81566048	    -59.77053070	    -23.90702438	    -67.89075470	     82.92820740	   -192.41668701
      1.76000000	      6.18845940	      8.60730171	      6.39819241	    -63.03674698	     36.34080887	     -9.32796383	    -57.79808044	    -11.51027870	    -60.61051559	    -60.13007355	     12.31039619	     19.64545250	    -26.37348557	     66.56430054	     46.73221207	   -176.05792236
      1.77000000	     24.04954910	     -2.61405325	      4.85642242	    -30.64400864	     23.20388985	     -6.24746037	     67.06822968	    -26.15860748	    -55.48271942	    -74.38652039	    -16.08424377	    -17.15217209	    -41.68955231	      2.98837423	     54.39076996	   -160.57727051
      1.78000000	      4.70132542	     -5.18125486	     -1.50713420	    -35.45614624	    -14.69295406	     -5.39308596	    -39.20255280	    -15.41803455	    -39.62339401	    -74.43500519	    -25.93747711	     21.78898621	    -32.08768082	     30.31032944	     74.21761322	   -109.74882507
      1.79000000	    -10.03081512	      0.05887046	      2.56473160	   -123.02113342	      0.03221357	     -7.74304056	    -49.21955872	    -12.32265759	    -31.46458817	    -70.01465607	     32.11365509	    -59.34403610	    -10.60397625	     19.38296890	      7.14431000	    -45.65922546
      1.80000000	     10.55318832	     12.91847515	     -8.35653210	   -124.13619232	     17.76714897	    -14.79561615	     -8.04794502	     -4.33044434	    -37.09685898	     18.91418457	     -7.42900753	     32.67440033	    -17.88947868	    -34.23426056	    -75.62125397	     45.37253952
      1.81000000	     -5.08879566	     13.44756031	     -1.35152531	     79.81211090	     -9.27725029	    -10.76873779	      2.92151999	     -1.11283123	    -42.01031494	     19.25436211	    -14.81712723	     27.31708527	    -11.69725800	     40.44229889	    -36.13602829	     54.20809937
      1.82000000	      8.21041775	     12.63132763	     63.13848877	    172.10145569	    276.67672729	    -10.41636944	      5.71629524	      2.23186803	    -39.92443466	     14.16848183	    -43.33345032	     30.53377533	      5.57386255	    -54.50846481	    -39.56862259	     11.43121910
      1.83000000	     -9.03696823	     14.54536533	    -53.58485794	    236.78938293	    403.72378540	    -12.49043655	      9.02951908	      6.73165751	    -37.56408691	      3.85643315	     -0.08770561	     16.81999969	      4.77858448	     10.63163662	      9.13842392	     -7.41629553
      1.84000000	     -5.86710119	     -0.45435524	    -77.01572418	    202.90046692	   -173.00302124	     -4.93331671	      1.45827150	     -6.64672852	    -11.02787113	     37.56821442	    -15.10606384	     21.58112717	      2.87093496	    -50.23165894	    -61.04944992	    -94.23858643
      1.85000000	    -17.18710709	      8.90887547	    -14.15392971	     57.76856995	   -552.98950195	    -14.92294312	      3.31832051	     -2.75744963	    -24.21716499	     38.48928833	     64.13788605	    -11.28686237	      7.46752357	    -55.57367325	    -29.54140854	    -59.82240677
      1.86000000	    -15.87302399	     22.66394424	      4.81714153	   -119.64025116	   -218.18441772	      0.49889803	      6.99851847	      0.37619162	     -9.97009277	     32.34411240	    -52.21452332	     -8.19429970	     25.15173721	     -8.73959827	    190.69972229	    -70.64975739
      1.87000000	     -6.32786274	     17.01936340	     22.76809120	   -222.30181885	    216.83343506	     -9.19646263	     -2.50932932	     15.91230011	     39.67116547	     32.77656174	     59.85346222	     -1.02222824	      5.75637341	    -12.75962067	    -74.62506866	   -138.90043640
      1.88000000	    -15.82869148	     13.00474930	     23.89410019	   -195.40951538	    209.09872437	      6.35131264	     -2.02292728	     18.45251274	     60.77373886	     33.33435059	     50.86029816	     -0.28085327	    -14.85462189	     -3.46790886	      2.51808214	   -373.15075684
      1.89000000	     -8.81315231	      4.58488131	      5.60890245	   -104.35117340	   -164.59317017	     12.75530243	      6.95768929	     14.36516571	     56.50989914	     71.18472290	     -7.15413761	     -5.50359344	    -17.95713806	    -13.82884121	    143.76501465	   -299.82263184
      1.90000000	     -3.74944925	     -0.21977711	    -35.63780594	    -88.13056946	   -354.00372314	     31.88948059	     -0.21159911	     -5.80321884	     50.76790237	     39.60037613	    -23.94372940	     -8.75053215	      9.22640896	     73.64810181	    241.55978394	    212.36978149
      1.91000000	      0.14187999	     -0.00888777	    -15.46505070	     -8.86334991	   -154.26173401	     23.47947502	    -22.14020920	     -2.87713838	      2.38692999	      5.85942841	     -1.97135496	      7.67661667	    -69.83286285	    -29.86727905	    221.53526306	    329.73519897
      1.92000000	      1.63830614	      0.33492661	      4.43805027	    146.92378235	    239.15606689	     15.44817924	     32.23468781	     -4.08273649	     19.32352066	    -72.34391022	      6.34720993	     46.29548645	     11.21568298	      2.38725471	    119.31047821	     98.17742920
      1.93000000	      2.91360235	      0.04394531	      5.11607933	    178.82505798	    378.99432373	      4.74124813	    -22.08846283	     23.83134460	     83.31608582	    -77.42338562	      8.11340332	     47.38620377	    -23.83106422	    -38.76461029	   -158.45527649	      0.23967171
